<svg id="Add_Road_Buddy" data-name="Add Road Buddy" xmlns="http://www.w3.org/2000/svg" width="25.836" height="26.557" viewBox="0 0 25.836 26.557">
  <path id="Path_15" data-name="Path 15" d="M986.264,213.557H962.605a34.853,34.853,0,0,1,.066-4.587,2.991,2.991,0,0,1,1.389-1.649c1.772-1.151,3.659-2.124,5.436-3.269,2.169-1.4,2.22-1.813.875-3.98a12.242,12.242,0,0,1-1.663-8.367,5.806,5.806,0,0,1,11.423.114c.043.3.068.595.109.956-.275.081-.524.161-.777.229a7.773,7.773,0,1,0,4.681,14.807c1.136-.423,1.975-.037,2.088,1.188C986.369,210.49,986.264,212,986.264,213.557Z" transform="translate(-962.561 -187)" fill="#c4c6c8"/>
  <path id="Path_16" data-name="Path 16" d="M1044.771,232.723a6.358,6.358,0,1,1-6.373-6.421A6.305,6.305,0,0,1,1044.771,232.723Zm-5.619.6h2.771v-1.45h-2.814v-2.7h-1.463v2.768h-2.755v1.435h2.812v2.784h1.449Z" transform="translate(-1019.435 -219.163)" fill="#c4c6c8" stroke="rgba(0,0,0,0)" stroke-miterlimit="10" stroke-width="1"/>
</svg>
