<?xml version="1.0" encoding="utf-8"?>
<!-- Generator: Adobe Illustrator 24.2.1, SVG Export Plug-In . SVG Version: 6.00 Build 0)  -->
<svg version="1.1" id="Layer_1" xmlns="http://www.w3.org/2000/svg" xmlns:xlink="http://www.w3.org/1999/xlink" x="0px" y="0px"
	 viewBox="0 0 22.9 18.8" style="enable-background:new 0 0 22.9 18.8;" xml:space="preserve">
<style type="text/css">
	.st0{fill:#585756;}
</style>
<g id="Layer_2_1_">
	<g id="Layer_1-2">
		<path id="Path_701" class="st0" d="M20.4,3h-4.1l-0.8-1.6C15,0.6,14.2,0.1,13.2,0H9.7c-1,0.1-1.8,0.6-2.3,1.4L6.6,3H2.5
			C1.1,3,0,4.1,0,5.5c0,0,0,0,0,0v10.7c0,1.4,1.1,2.5,2.5,2.5h17.8c1.4,0,2.5-1.1,2.5-2.5l0,0V5.6C22.9,4.2,21.8,3,20.4,3
			C20.4,3,20.4,3,20.4,3z M3.1,7.1c-0.6,0-1-0.4-1-1s0.4-1,1-1s1,0.4,1,1l0,0C4.1,6.7,3.6,7.1,3.1,7.1z M11.5,16.3
			c-3,0-5.4-2.4-5.4-5.3s2.4-5.4,5.3-5.4s5.4,2.4,5.4,5.3c0,0,0,0,0,0.1l0,0C16.8,13.9,14.4,16.3,11.5,16.3
			C11.5,16.3,11.5,16.4,11.5,16.3L11.5,16.3z M11.5,7.4c-2,0-3.6,1.6-3.6,3.5c0,2,1.6,3.6,3.5,3.6c2,0,3.6-1.6,3.6-3.5l0,0
			C15,9,13.4,7.4,11.5,7.4C11.5,7.4,11.5,7.4,11.5,7.4z"/>
	</g>
</g>
</svg>
