<svg id="Date_-_Rides" data-name="Date - Rides" xmlns="http://www.w3.org/2000/svg" width="25.023" height="20.164" viewBox="0 0 25.023 20.164">
  <g id="Group_450" data-name="Group 450" transform="translate(2.47 2.342)">
    <path id="Path_678" data-name="Path 678" d="M919.1,3736.818H901.258a1.137,1.137,0,0,1-1.127-.959l-2.422-14.938a1.659,1.659,0,0,1,1.638-1.925h16.792a1.653,1.653,0,0,1,1.638,1.394l2.449,15.1a1.142,1.142,0,0,1-1.127,1.324Zm-19.752-16.748a.585.585,0,0,0-.578.678h0l2.422,14.938a.067.067,0,0,0,.067.057H919.1a.067.067,0,0,0,.067-.078l-2.448-15.1a.583.583,0,0,0-.578-.491Z" transform="translate(-897.687 -3718.996)" fill="#f5891f"/>
  </g>
  <g id="Group_451" data-name="Group 451" transform="translate(0 2.342)">
    <path id="Path_679" data-name="Path 679" d="M842.326,3736.208H839.7a1.142,1.142,0,0,1-1.127-1.324l2.416-14.29a1.9,1.9,0,0,1,1.881-1.6.537.537,0,0,1,0,1.074.828.828,0,0,0-.821.7l-2.416,14.29a.063.063,0,0,0,.016.051.065.065,0,0,0,.051.024h2.629a.537.537,0,1,1,0,1.074Z" transform="translate(-838.555 -3718.996)" fill="#f5891f"/>
  </g>
  <g id="Group_452" data-name="Group 452" transform="translate(4.204 0)">
    <path id="Path_680" data-name="Path 680" d="M941.023,3668.114a.537.537,0,0,1-.081-1.068,1.963,1.963,0,0,0,.229-1.585c-.143-.929-.548-1.4-.693-1.441a.838.838,0,0,0-.214.463.537.537,0,1,1-1.048-.237c.167-.739.567-1.209,1.1-1.291.882-.135,1.689.85,1.919,2.342a3.981,3.981,0,0,1-.086,1.731c-.259.84-.764,1.036-1.041,1.079A.551.551,0,0,1,941.023,3668.114Z" transform="translate(-939.204 -3662.944)" fill="#f5891f"/>
  </g>
  <g id="Group_453" data-name="Group 453" transform="translate(8.672)">
    <path id="Path_681" data-name="Path 681" d="M1047.976,3668.11a.537.537,0,0,1-.081-1.068,1.964,1.964,0,0,0,.229-1.585c-.143-.929-.548-1.4-.693-1.441a.838.838,0,0,0-.214.463.537.537,0,1,1-1.048-.236c.167-.739.567-1.209,1.1-1.291.882-.136,1.689.85,1.918,2.342a3.976,3.976,0,0,1-.086,1.73c-.259.84-.764,1.037-1.041,1.079A.55.55,0,0,1,1047.976,3668.11Z" transform="translate(-1046.157 -3662.94)" fill="#f5891f"/>
  </g>
  <g id="Group_454" data-name="Group 454" transform="translate(13.076 0)">
    <path id="Path_682" data-name="Path 682" d="M1153.393,3668.114a.537.537,0,0,1-.081-1.068,1.963,1.963,0,0,0,.229-1.585c-.143-.929-.548-1.4-.693-1.441a.838.838,0,0,0-.214.463.537.537,0,1,1-1.048-.237c.167-.739.567-1.209,1.1-1.291.883-.135,1.689.85,1.918,2.342a3.979,3.979,0,0,1-.086,1.731c-.259.84-.764,1.036-1.042,1.079A.55.55,0,0,1,1153.393,3668.114Z" transform="translate(-1151.574 -3662.944)" fill="#f5891f"/>
  </g>
  <g id="Group_455" data-name="Group 455" transform="translate(17.306 0)">
    <path id="Path_683" data-name="Path 683" d="M1254.647,3668.114a.537.537,0,0,1-.081-1.068,1.964,1.964,0,0,0,.229-1.585c-.143-.929-.548-1.4-.693-1.441a.839.839,0,0,0-.214.463.537.537,0,1,1-1.048-.237c.167-.739.567-1.209,1.1-1.291.883-.135,1.689.85,1.918,2.342a3.977,3.977,0,0,1-.086,1.73c-.259.84-.764,1.037-1.041,1.079A.552.552,0,0,1,1254.647,3668.114Z" transform="translate(-1252.828 -3662.944)" fill="#f5891f"/>
  </g>
  <g id="Group_456" data-name="Group 456" transform="translate(9.127 7.923)">
    <path id="Path_684" data-name="Path 684" d="M1061.5,3860.484a.567.567,0,0,1-.347-.121l-3.9-3.194a.537.537,0,0,1-.085-.744l1.061-1.374a.537.537,0,0,1,.765-.087l1.8,1.472,2.767-3.609a.537.537,0,0,1,.766-.089l1.682,1.374a.537.537,0,0,1,.086.743l-4.163,5.419a.537.537,0,0,1-.426.21Zm-3.167-3.816,3.076,2.516,3.511-4.57-.849-.693-2.768,3.61a.537.537,0,0,1-.767.089l-1.8-1.474Z" transform="translate(-1057.046 -3852.617)" fill="#f5891f"/>
  </g>
</svg>
