<svg id="Distance_-_Rides" data-name="Distance - Rides" xmlns="http://www.w3.org/2000/svg" width="17.695" height="24.319" viewBox="0 0 17.695 24.319">
  <path id="Path_677" data-name="Path 677" d="M1526.811,531.577a8.987,8.987,0,0,0-8.847,9.119c0,6.013,8.847,15.2,8.847,15.2s8.847-9.295,8.847-15.2A8.987,8.987,0,0,0,1526.811,531.577Zm0,22.68c-.83-.928-2.192-2.517-3.54-4.377-2.746-3.789-4.2-6.965-4.2-9.184a7.746,7.746,0,1,1,15.483,0c0,2.18-1.457,5.35-4.214,9.167C1528.99,551.73,1527.633,553.325,1526.807,554.257Zm.009-17.813a4.259,4.259,0,1,0,4.118,4.257A4.189,4.189,0,0,0,1526.816,536.444Zm0,7.408a3.154,3.154,0,1,1,3.012-3.151A3.087,3.087,0,0,1,1526.816,543.852Z" transform="translate(-1517.964 -531.577)" fill="#f5891f" fill-rule="evenodd"/>
</svg>
