<svg xmlns="http://www.w3.org/2000/svg" viewBox="0 0 72.14 86.01"><defs><style>.cls-1{fill:#fff;}.cls-2{fill:#f37321;}.cls-3{fill:#1a1818;}</style></defs><g id="Layer_2" data-name="Layer 2"><g id="Layer_1-2" data-name="Layer 1"><g id="Layer_2-2" data-name="Layer 2"><g id="Layer_1-2-2" data-name="Layer 1-2"><g id="Group_306" data-name="Group 306"><g id="Group_303" data-name="Group 303"><g id="Ellipse_42-2" data-name="Ellipse 42-2"><circle class="cls-1" cx="35.86" cy="36.15" r="34.99"/></g><g id="Ellipse_43" data-name="Ellipse 43"><path class="cls-2" d="M36.07,72.14A36.07,36.07,0,1,1,72.14,36.07h0A36.11,36.11,0,0,1,36.07,72.14Zm0-66.64A30.57,30.57,0,1,0,66.61,36.1v0A30.61,30.61,0,0,0,36.07,5.5Z"/></g><g id="Path_596" data-name="Path 596"><path class="cls-3" d="M33.94,29.1h-13v13h6l-3.66,9.33,7,.1L34,42.13l16.76,9.74V19.32Z"/></g></g></g></g></g><path class="cls-1" d="M4,68.47,6.4,70.41a3.08,3.08,0,0,1,1.16,1.68,1.61,1.61,0,0,1-.37,1.36h0A1.78,1.78,0,0,1,5,73.89v2.59l-1.34-1.1,0-2.3-.9-.73L1.62,73.73.47,72.79Zm.58,4c.56.46,1.08.48,1.38.11H6c.34-.41.17-.9-.39-1.36l-1.14-.93-1,1.24Z"/><path class="cls-1" d="M9,75.9v0c.75-1.4,2.7-1.84,4.52-.85s2.53,2.82,1.78,4.22h0c-.75,1.41-2.7,1.84-4.52.86S8.26,77.3,9,75.9Zm4.93,2.65v0A1.88,1.88,0,0,0,13,76a1.84,1.84,0,0,0-2.6.58h0a1.89,1.89,0,0,0,1,2.52A1.85,1.85,0,0,0,13.94,78.55Z"/><path class="cls-1" d="M21,78.28l1.3.41,1.07,6.24-1.48-.46-.21-1.38L19,82.24l-1,1-1.44-.45Zm.5,3.61-.31-2-1.39,1.47Z"/><path class="cls-1" d="M27.43,80l2.6.3c2.1.24,3.41,1.61,3.23,3.17v0c-.18,1.56-1.77,2.61-3.87,2.37l-2.6-.3Zm1.34,1.27-.39,3.36,1.14.13a1.78,1.78,0,0,0,2.2-1.43v0c.12-1-.62-1.77-1.82-1.91Z"/><path class="cls-1" d="M40.87,80.48l5.06-.78.17,1.1-3.59.56.18,1.18,3.17-.49.17,1.1-3.17.49.33,2.14L41.73,86Z"/><path class="cls-1" d="M48.49,79.05l4.82-1.58.34,1-3.42,1.12.36,1.08,3-1,.34,1-3,1,.37,1.12,3.47-1.14.34,1-4.87,1.6Z"/><path class="cls-1" d="M55.9,76.34,60.38,74l.51,1-3.18,1.69.53,1L61,76.14l.52,1-2.8,1.49.55,1,3.22-1.71.52,1-4.52,2.4Z"/><path class="cls-1" d="M62.72,72.47l2.06-1.63c1.65-1.31,3.54-1.27,4.52,0h0c1,1.24.59,3.11-1.06,4.42l-2.06,1.63Zm1.85,0,2.09,2.65.9-.71a1.78,1.78,0,0,0,.55-2.57v0a1.79,1.79,0,0,0-2.63-.06Z"/></g></g></svg>